<svg xmlns="http://www.w3.org/2000/svg" viewBox="0 0 75 27">
  <defs>
    <style>
      .a {
        fill: #fff;
      }
    </style>
  </defs>
  <g>
    <path class="a" d="M138,1199v14H65c3-3,5.84-6,8.88-8.83a46.64,46.64,0,0,1,4.58-3.38l.94,1.23-5.17,7.35,1.26,1.21c2-1.71,4.32-3.12,5.76-5.18,2.23-3.17,4.72-4.84,8.7-4.3a54.13,54.13,0,0,0,7,.06h23.82l.62,8.73Z" transform="translate(-63 -1186)"/>
    <path class="a" d="M66,1186h72v12l-17-8.89v8.13c-10.74,0-21-.19-31.32.1-4,.11-6.51-1.06-8.71-4.34-1.29-1.92-3.62-3.13-5.48-4.67l-1.1,1.18,4.73,7.08-1,1.14a29.58,29.58,0,0,1-4.15-3C71.16,1191.88,68.61,1188.9,66,1186Z" transform="translate(-63 -1186)"/>
    <path d="M66,1186c2.62,2.9,5.17,5.88,7.9,8.68a29.58,29.58,0,0,0,4.15,3l1-1.14-4.73-7.08,1.1-1.18c1.86,1.54,4.19,2.75,5.48,4.67,2.2,3.28,4.75,4.45,8.71,4.34,10.28-.29,20.58-.1,31.32-.1v-8.13l17,8.89v1l-16.64,10.9-.62-8.73H96.92a54.13,54.13,0,0,1-7-.06c-4-.54-6.47,1.13-8.7,4.3-1.44,2.06-3.8,3.47-5.76,5.18l-1.26-1.21,5.17-7.35-.94-1.23a46.64,46.64,0,0,0-4.58,3.38c-3,2.86-5.93,5.88-8.88,8.83H64a115.42,115.42,0,0,1,6.18-9.84c2-2.67,2.19-4.67.07-7.38-2.36-3-4.19-6.5-6.25-9.78Z" transform="translate(-63 -1186)"/>
    <path class="a" d="M64,1186c2.06,3.28,3.89,6.74,6.25,9.78,2.12,2.71,2,4.71-.07,7.38A115.42,115.42,0,0,0,64,1213c-.33-.17-1-.33-1-.5q-.07-13,0-26C63,1186.33,63.66,1186.17,64,1186Z" transform="translate(-63 -1186)"/>
  </g>
</svg>
